<svg xmlns="http://www.w3.org/2000/svg" xmlns:xlink="http://www.w3.org/1999/xlink"
    viewBox="0 0 430 430" width="430" height="430" preserveAspectRatio="xMidYMid meet"
    style="width: 100%; height: 100%; transform: translate3d(0px, 0px, 0px); content-visibility: visible;">
    <defs>
        <clipPath id="__lottie_element_1912">
            <rect width="430" height="430" x="0" y="0"></rect>
        </clipPath>
        <clipPath id="__lottie_element_1914">
            <path d="M0,0 L430,0 L430,430 L0,430z"></path>
        </clipPath>
    </defs>
    <g clip-path="url(#__lottie_element_1912)">
        <g clip-path="url(#__lottie_element_1914)" transform="matrix(1,0,0,1,0,0)" opacity="1"
            style="display: block;">
            <g
                transform="matrix(-3.1010396480560303,-3.260913133621216,2.9616916179656982,-2.816488027572632,208.44761657714844,194.5235595703125)"
                opacity="1" style="display: block;">
                <g opacity="1" transform="matrix(1,0,0,1,0,0)">
                    <path class="secondary" fill="rgb(44,165,141)" fill-opacity="1"
                        d=" M-27.395893096923828,-36.977783203125 C-8.411916732788086,-30.75534439086914 10.89900016784668,-0.25099998712539673 18.708999633789062,-31.48699951171875 C24.41900062561035,-54.32600021362305 -14.759566307067871,-56.543670654296875 -27.395893096923828,-36.977783203125z"></path>
                </g>
            </g>
            <g
                transform="matrix(-1.1979947090148926,4.33760404586792,-3.9395856857299805,-1.088066816329956,188.14805603027344,246.11154174804688)"
                opacity="1" style="display: block;">
                <g opacity="1" transform="matrix(1,0,0,1,0,0)">
                    <path class="secondary" fill="rgb(44,165,141)" fill-opacity="1"
                        d=" M-27.395893096923828,-36.977783203125 C-8.411916732788086,-30.75534439086914 10.89900016784668,-0.25099998712539673 18.708999633789062,-31.48699951171875 C24.41900062561035,-54.32600021362305 -14.759566307067871,-56.543670654296875 -27.395893096923828,-36.977783203125z"></path>
                </g>
            </g>
            <g
                transform="matrix(4.355472564697266,-1.1313081979751587,1.0274993181228638,3.9558145999908447,245.83091735839844,236.2356414794922)"
                opacity="1" style="display: block;">
                <g opacity="1" transform="matrix(1,0,0,1,0,0)">
                    <path class="secondary" fill="rgb(44,165,141)" fill-opacity="1"
                        d=" M-27.395893096923828,-36.977783203125 C-8.411916732788086,-30.75534439086914 10.89900016784668,-0.25099998712539673 18.708999633789062,-31.48699951171875 C24.41900062561035,-54.32600021362305 -14.759566307067871,-56.543670654296875 -27.395893096923828,-36.977783203125z"></path>
                </g>
            </g>
            <g
                transform="matrix(4.355472564697266,-1.1313081979751587,1.0274993181228638,3.9558145999908447,245.83091735839844,236.2356414794922)"
                opacity="0.5" style="mix-blend-mode: multiply; display: block;">
                <g opacity="1" transform="matrix(1,0,0,1,0,0)">
                    <path class="secondary" fill="rgb(44,165,141)" fill-opacity="1"
                        d=" M-27.395893096923828,-36.977783203125 C-10.451631546020508,-43.30385971069336 8.085348129272461,-36.44719696044922 17.880596160888672,-28.40125846862793 C18.17185401916504,-28.9163818359375 18.381000518798828,-30.174999237060547 18.708999633789062,-31.48699951171875 C24.41900062561035,-54.32600021362305 -14.759566307067871,-56.543670654296875 -27.395893096923828,-36.977783203125z"></path>
                </g>
            </g>
            <g
                transform="matrix(-3.1010396480560303,-3.260913133621216,2.9616916179656982,-2.816488027572632,208.44761657714844,194.5235595703125)"
                opacity="0.5" style="mix-blend-mode: multiply; display: block;">
                <g opacity="1" transform="matrix(1,0,0,1,0,0)">
                    <path class="secondary" fill="rgb(44,165,141)" fill-opacity="1"
                        d=" M-27.395893096923828,-36.977783203125 C-10.451631546020508,-43.30385971069336 8.085348129272461,-36.44719696044922 17.880596160888672,-28.40125846862793 C18.17185401916504,-28.9163818359375 18.381000518798828,-30.174999237060547 18.708999633789062,-31.48699951171875 C24.41900062561035,-54.32600021362305 -14.759566307067871,-56.543670654296875 -27.395893096923828,-36.977783203125z"></path>
                </g>
            </g>
            <g
                transform="matrix(-1.1979947090148926,4.33760404586792,-3.9395856857299805,-1.088066816329956,188.14805603027344,246.11154174804688)"
                opacity="0.5" style="mix-blend-mode: multiply; display: block;">
                <g opacity="1" transform="matrix(1,0,0,1,0,0)">
                    <path class="secondary" fill="rgb(44,165,141)" fill-opacity="1"
                        d=" M-27.395893096923828,-36.977783203125 C-10.451631546020508,-43.30385971069336 8.085348129272461,-36.44719696044922 17.880596160888672,-28.40125846862793 C18.17185401916504,-28.9163818359375 18.381000518798828,-30.174999237060547 18.708999633789062,-31.48699951171875 C24.41900062561035,-54.32600021362305 -14.759566307067871,-56.543670654296875 -27.395893096923828,-36.977783203125z"></path>
                </g>
            </g>
            <g
                transform="matrix(-3.1010396480560303,-3.260913133621216,2.9616916179656982,-2.816488027572632,208.44761657714844,194.5235595703125)"
                opacity="1" style="display: block;">
                <path stroke-linecap="butt" stroke-linejoin="miter" fill-opacity="0"
                    stroke-miterlimit="4" stroke="rgb(255,255,255)" stroke-opacity="1"
                    stroke-width="1.61"
                    d=" M-27.395893096923828,-36.977783203125 C-8.411916732788086,-30.75534439086914 10.89900016784668,-0.25099998712539673 18.708999633789062,-31.48699951171875 C24.41900062561035,-54.32600021362305 -14.759566307067871,-56.543670654296875 -27.395893096923828,-36.977783203125z M7.389898777008057,-33.57670211791992 C7.389898777008057,-33.57670211791992 17.20800018310547,-33.70800018310547 24.082000732421875,-21.177000045776367"></path>
                <g opacity="1" transform="matrix(1,0,0,1,0,0)">
                    <path stroke-linecap="round" stroke-linejoin="round" fill-opacity="0"
                        class="primary" stroke="rgb(18,19,49)" stroke-opacity="1"
                        stroke-width="1.61"
                        d=" M-27.395893096923828,-36.977783203125 C-8.411916732788086,-30.75534439086914 10.89900016784668,-0.25099998712539673 18.708999633789062,-31.48699951171875 C24.41900062561035,-54.32600021362305 -14.759566307067871,-56.543670654296875 -27.395893096923828,-36.977783203125z"></path>
                </g>
                <path stroke-linecap="round" stroke-linejoin="round" fill-opacity="0"
                    class="primary" stroke="rgb(18,19,49)" stroke-opacity="1" stroke-width="1.61"
                    d=" M7.389898777008057,-33.57670211791992 C7.389898777008057,-33.57670211791992 17.20800018310547,-33.70800018310547 24.082000732421875,-21.177000045776367"></path>
            </g>
            <g
                transform="matrix(-1.1979947090148926,4.33760404586792,-3.9395856857299805,-1.088066816329956,188.14805603027344,246.11154174804688)"
                opacity="1" style="display: block;">
                <g opacity="1" transform="matrix(1,0,0,1,0,0)">
                    <path stroke-linecap="round" stroke-linejoin="round" fill-opacity="0"
                        class="primary" stroke="rgb(18,19,49)" stroke-opacity="1"
                        stroke-width="1.61"
                        d=" M-27.395893096923828,-36.977783203125 C-8.411916732788086,-30.75534439086914 10.89900016784668,-0.25099998712539673 18.708999633789062,-31.48699951171875 C24.41900062561035,-54.32600021362305 -14.759566307067871,-56.543670654296875 -27.395893096923828,-36.977783203125z"></path>
                </g>
                <path stroke-linecap="round" stroke-linejoin="round" fill-opacity="0"
                    class="primary" stroke="rgb(18,19,49)" stroke-opacity="1" stroke-width="1.61"
                    d=" M7.389898777008057,-33.57670211791992 C7.389898777008057,-33.57670211791992 17.20800018310547,-33.70800018310547 24.082000732421875,-21.177000045776367"></path>
            </g>
            <g
                transform="matrix(4.355472564697266,-1.1313081979751587,1.0274993181228638,3.9558145999908447,245.83091735839844,236.2356414794922)"
                opacity="1" style="display: block;">
                <g opacity="1" transform="matrix(1,0,0,1,0,0)">
                    <path stroke-linecap="round" stroke-linejoin="round" fill-opacity="0"
                        class="primary" stroke="rgb(18,19,49)" stroke-opacity="1"
                        stroke-width="1.61"
                        d=" M-27.395893096923828,-36.977783203125 C-8.411916732788086,-30.75534439086914 10.89900016784668,-0.25099998712539673 18.708999633789062,-31.48699951171875 C24.41900062561035,-54.32600021362305 -14.759566307067871,-56.543670654296875 -27.395893096923828,-36.977783203125z"></path>
                </g>
                <path stroke-linecap="round" stroke-linejoin="round" fill-opacity="0"
                    class="primary" stroke="rgb(18,19,49)" stroke-opacity="1" stroke-width="1.61"
                    d=" M7.389898777008057,-33.57670211791992 C7.389898777008057,-33.57670211791992 17.20800018310547,-33.70800018310547 24.082000732421875,-21.177000045776367"></path>
            </g>
        </g>
    </g>
</svg>